<svg width="30" height="30" viewBox="0 0 30 30" fill="none" xmlns="http://www.w3.org/2000/svg">
<path d="M14.113 3.34094H4.69177C3.97787 3.34094 3.29321 3.62454 2.7884 4.12934C2.2836 4.63415 2 5.31881 2 6.03272V24.8751C2 25.589 2.2836 26.2737 2.7884 26.7785C3.29321 27.2833 3.97787 27.5669 4.69177 27.5669H23.5342C24.2481 27.5669 24.9328 27.2833 25.4376 26.7785C25.9424 26.2737 26.226 25.589 26.226 24.8751V15.4539" stroke="#0E797F" stroke-width="3" stroke-linecap="round" stroke-linejoin="round"/>
<path d="M22.6955 2.83623C23.231 2.3008 23.9571 2 24.7144 2C25.4716 2 26.1978 2.3008 26.7332 2.83623C27.2686 3.37165 27.5694 4.09785 27.5694 4.85506C27.5694 5.61227 27.2686 6.33846 26.7332 6.87389L14.6027 19.0057C14.2831 19.325 13.8883 19.5588 13.4547 19.6854L9.58793 20.8159C9.47212 20.8497 9.34936 20.8517 9.23249 20.8218C9.11563 20.7919 9.00897 20.7311 8.92366 20.6458C8.83836 20.5605 8.77756 20.4538 8.74762 20.3369C8.71768 20.2201 8.7197 20.0973 8.75348 19.9815L9.88403 16.1148C10.0112 15.6814 10.2454 15.2871 10.565 14.9681L22.6955 2.83623Z" stroke="#0E797F" stroke-width="3" stroke-linecap="round" stroke-linejoin="round"/>
</svg>
