<svg width="44" height="46" viewBox="0 0 44 46" fill="none" xmlns="http://www.w3.org/2000/svg">
<path d="M21.7818 29.2758C25.2581 29.2758 28.0762 26.4577 28.0762 22.9814C28.0762 19.505 25.2581 16.6869 21.7818 16.6869C18.3054 16.6869 15.4873 19.505 15.4873 22.9814C15.4873 26.4577 18.3054 29.2758 21.7818 29.2758Z" stroke="white" stroke-width="2.90096"/>
<path d="M25.485 2.31892C24.715 2 23.7373 2 21.7818 2C19.8263 2 18.8486 2 18.0785 2.31892C17.5691 2.52981 17.1062 2.83904 16.7163 3.22894C16.3264 3.61883 16.0171 4.08175 15.8062 4.59122C15.6132 5.05911 15.5356 5.60673 15.5062 6.40193C15.4931 6.9768 15.3342 7.53892 15.0442 8.03549C14.7543 8.53206 14.3429 8.94679 13.8487 9.24073C13.347 9.52198 12.7821 9.67107 12.2069 9.674C11.6318 9.67694 11.0654 9.53362 10.5609 9.25752C9.85588 8.88405 9.34603 8.67843 8.84037 8.61129C7.73741 8.46624 6.62199 8.7651 5.7393 9.44216C5.08048 9.95201 4.58951 10.7976 3.61177 12.4908C2.63403 14.184 2.14306 15.0295 2.03606 15.8583C1.96395 16.4048 2.00022 16.9601 2.14278 17.4926C2.28535 18.025 2.53141 18.5242 2.86693 18.9615C3.17745 19.3643 3.61177 19.7021 4.28528 20.126C5.27771 20.7491 5.91555 21.8108 5.91555 22.9816C5.91555 24.1523 5.27771 25.214 4.28528 25.835C3.61177 26.261 3.17535 26.5988 2.86693 27.0016C2.53141 27.4389 2.28535 27.9381 2.14278 28.4705C2.00022 29.003 1.96395 29.5583 2.03606 30.1048C2.14516 30.9315 2.63403 31.7791 3.60967 33.4723C4.58951 35.1655 5.07838 36.0111 5.7393 36.5209C6.17663 36.8565 6.67578 37.1025 7.20823 37.2451C7.74068 37.3877 8.296 37.4239 8.84247 37.3518C9.34603 37.2847 9.85588 37.0791 10.5609 36.7056C11.0654 36.4295 11.6318 36.2862 12.2069 36.2891C12.7821 36.292 13.347 36.4411 13.8487 36.7224C14.8621 37.3099 15.4642 38.3904 15.5062 39.5612C15.5356 40.3585 15.6111 40.904 15.8062 41.3719C16.0171 41.8814 16.3264 42.3443 16.7163 42.7342C17.1062 43.1241 17.5691 43.4333 18.0785 43.6442C18.8486 43.9631 19.8263 43.9631 21.7818 43.9631C23.7373 43.9631 24.715 43.9631 25.485 43.6442C25.9945 43.4333 26.4574 43.1241 26.8473 42.7342C27.2372 42.3443 27.5464 41.8814 27.7573 41.3719C27.9504 40.904 28.028 40.3585 28.0574 39.5612C28.0993 38.3904 28.7015 37.3078 29.7149 36.7224C30.2166 36.4411 30.7815 36.292 31.3567 36.2891C31.9318 36.2862 32.4982 36.4295 33.0027 36.7056C33.7077 37.0791 34.2176 37.2847 34.7211 37.3518C35.2676 37.4239 35.8229 37.3877 36.3554 37.2451C36.8878 37.1025 37.387 36.8565 37.8243 36.5209C38.4852 36.0132 38.9741 35.1655 39.9518 33.4723C40.9296 31.7791 41.4205 30.9336 41.5275 30.1048C41.5996 29.5583 41.5634 29.003 41.4208 28.4705C41.2782 27.9381 41.0322 27.4389 40.6967 27.0016C40.3861 26.5988 39.9518 26.261 39.2783 25.8371C38.7868 25.5384 38.3793 25.1196 38.0941 24.62C37.8089 24.1205 37.6554 23.5567 37.648 22.9816C37.648 21.8108 38.2859 20.7491 39.2783 20.1281C39.9518 19.7021 40.3882 19.3643 40.6967 18.9615C41.0322 18.5242 41.2782 18.025 41.4208 17.4926C41.5634 16.9601 41.5996 16.4048 41.5275 15.8583C41.4184 15.0316 40.9296 14.184 39.9539 12.4908C38.9741 10.7976 38.4852 9.95201 37.8243 9.44216C37.387 9.10664 36.8878 8.86058 36.3554 8.71801C35.8229 8.57545 35.2676 8.53918 34.7211 8.61129C34.2176 8.67843 33.7077 8.88405 33.0006 9.25752C32.4964 9.53325 31.9303 9.67636 31.3556 9.67342C30.7809 9.67049 30.2163 9.5216 29.7149 9.24073C29.2207 8.94679 28.8093 8.53206 28.5194 8.03549C28.2294 7.53892 28.0704 6.9768 28.0574 6.40193C28.028 5.60463 27.9525 5.05911 27.7573 4.59122C27.5464 4.08175 27.2372 3.61883 26.8473 3.22894C26.4574 2.83904 25.9945 2.52981 25.485 2.31892Z" stroke="white" stroke-width="2.90096"/>
</svg>
