<svg width="61" height="43" viewBox="0 0 61 43" fill="none" xmlns="http://www.w3.org/2000/svg">
<g filter="url(#filter0_dd_1_19)">
<path d="M40.6352 14.0269C39.8576 14.0269 39.2163 14.6626 39.2163 15.4345V23.9706C39.2326 24.336 39.3892 24.6809 39.6535 24.9337C39.9179 25.1864 40.2695 25.3275 40.6352 25.3275C41.0009 25.3275 41.3525 25.1864 41.6168 24.9337C41.8811 24.6809 42.0377 24.336 42.0541 23.9706V15.4345C42.0537 15.2488 42.0167 15.065 41.9451 14.8936C41.8735 14.7223 41.7688 14.5668 41.637 14.436C41.5051 14.3052 41.3488 14.2018 41.1769 14.1316C41.005 14.0614 40.8209 14.0258 40.6352 14.0269ZM33.5477 19.7026C33.5477 20.4552 33.2487 21.177 32.7166 21.7092C32.1844 22.2414 31.4626 22.5404 30.7099 22.5404C29.9573 22.5404 29.2355 22.2414 28.7033 21.7092C28.1711 21.177 27.8721 20.4552 27.8721 19.7026C27.8721 18.9499 28.1711 18.2281 28.7033 17.6959C29.2355 17.1637 29.9573 16.8647 30.7099 16.8647C31.4626 16.8647 32.1844 17.1637 32.7166 17.6959C33.2487 18.2281 33.5477 18.9499 33.5477 19.7026ZM19.3516 15.4345C19.3516 14.6626 19.9986 14.0269 20.7847 14.0269C20.9712 14.0251 21.1563 14.06 21.3294 14.1298C21.5024 14.1995 21.66 14.3027 21.7932 14.4335C21.9263 14.5642 22.0323 14.7199 22.1051 14.8917C22.178 15.0635 22.2163 15.2479 22.2178 15.4345V23.9706C22.2178 24.7425 21.5707 25.3782 20.7847 25.3782C19.9986 25.3782 19.3516 24.7425 19.3516 23.9706V15.4345Z" fill="#0E797F"/>
<path d="M16.584 14.3108C16.584 12.4037 18.1959 10.9011 20.1313 10.9011H41.2872C43.2226 10.9011 44.8344 12.4037 44.8344 14.3108V25.1384C44.8344 27.0469 43.2226 28.5481 41.2872 28.5481H20.1313C18.2157 28.5481 16.584 27.0639 16.584 25.1384V14.3108ZM41.2872 27.1292C42.5017 27.1292 43.4155 26.2012 43.4155 25.1384V14.3108C43.4155 13.2466 42.5017 12.32 41.2872 12.32H37.5838V27.1292H41.2872ZM36.1649 27.1292V12.32H25.2535V27.1292H36.1649ZM23.8346 12.32H20.1313C18.9167 12.32 18.0029 13.248 18.0029 14.3108V25.1384C18.0029 26.2111 18.9252 27.1292 20.1313 27.1292H23.8346V12.32Z" fill="#0E797F"/>
<path d="M45.2321 4.0946H16.1587C15.2864 4.0966 14.4437 4.41073 13.7829 4.98017C13.1221 5.54961 12.6869 6.33674 12.5561 7.19917C12.484 7.56325 12.2988 7.89529 12.027 8.14801C11.7551 8.40073 11.4105 8.56126 11.0421 8.60673C10.2008 8.71876 9.42864 9.13232 8.86915 9.77062C8.30966 10.4089 8.00082 11.2286 8 12.0774V14.2781C8 15.111 8.29655 15.9155 8.83716 16.5484C8.29646 17.1811 7.99957 17.9863 8 18.8186V20.5979C8 21.4308 8.29655 22.2353 8.83716 22.8682C8.29591 23.5006 7.99894 24.306 8 25.1384V27.3533C8.00294 28.2088 8.31792 29.0338 8.88585 29.6736C9.45377 30.3133 10.2356 30.7239 11.0847 30.8282C11.4495 30.8773 11.7892 31.0413 12.0545 31.2964C12.3199 31.5515 12.497 31.8845 12.5604 32.2471C12.6991 33.1017 13.1372 33.8791 13.7964 34.4403C14.4557 35.0015 15.293 35.31 16.1587 35.3106H45.2605C46.1289 35.31 46.9686 35 47.6291 34.4362C48.2896 33.8725 48.7276 33.0919 48.8645 32.2344C48.9304 31.8727 49.1098 31.5414 49.3766 31.2885C49.6435 31.0357 49.984 30.8745 50.3487 30.8282C51.1927 30.7188 51.968 30.3062 52.5303 29.6674C53.0926 29.0286 53.4035 28.2072 53.405 27.3562V25.1413C53.4056 24.3127 53.1113 23.511 52.575 22.8795C53.1205 22.2451 53.4201 21.436 53.4192 20.5993V18.82C53.4198 17.9877 53.1229 17.1825 52.5821 16.5498C53.1229 15.917 53.4198 15.1119 53.4192 14.2795V12.0916C53.4163 11.2359 53.1014 10.4108 52.5335 9.77076C51.9656 9.13076 51.1837 8.7199 50.3345 8.61524C49.9618 8.56596 49.6146 8.39856 49.344 8.13759C49.0733 7.87663 48.8933 7.53582 48.8305 7.16512C48.6922 6.30976 48.2544 5.53138 47.5953 4.96894C46.9362 4.40651 46.0986 4.09662 45.2321 4.0946ZM45.2321 6.93242C45.4228 6.93219 45.6073 6.99968 45.7529 7.12286C45.8984 7.24604 45.9954 7.4169 46.0267 7.60498C46.186 8.58472 46.6574 9.48684 47.3707 10.1771C48.084 10.8674 49.001 11.3089 49.9855 11.436C50.1483 11.4541 50.2989 11.5312 50.4087 11.6528C50.5185 11.7744 50.58 11.932 50.5814 12.0958V14.2824C50.581 14.3713 50.5631 14.4593 50.5287 14.5413C50.4942 14.6233 50.4439 14.6976 50.3806 14.7601C50.3173 14.8226 50.2423 14.872 50.1599 14.9054C50.0775 14.9388 49.9893 14.9557 49.9003 14.9549H49.5882C49.3745 14.953 49.1626 14.9938 48.9649 15.075C48.7673 15.1561 48.5878 15.276 48.4371 15.4275C48.2864 15.5789 48.1675 15.759 48.0874 15.9571C48.0073 16.1552 47.9676 16.3673 47.9706 16.581C47.9919 17.0078 48.1787 17.4095 48.4913 17.7009C48.8039 17.9923 49.2177 18.1504 49.6449 18.1418H49.9003C50.08 18.141 50.2526 18.2116 50.3803 18.3379C50.5079 18.4643 50.5803 18.6361 50.5814 18.8158V20.5951C50.581 20.684 50.5631 20.772 50.5287 20.854C50.4942 20.936 50.4439 21.0103 50.3806 21.0728C50.3173 21.1353 50.2423 21.1847 50.1599 21.2181C50.0775 21.2516 49.9893 21.2684 49.9003 21.2676H49.5882C49.3743 21.2613 49.1613 21.2979 48.9618 21.3754C48.7623 21.4528 48.5803 21.5695 48.4268 21.7186C48.2732 21.8676 48.1511 22.046 48.0678 22.2431C47.9844 22.4402 47.9414 22.652 47.9414 22.866C47.9414 23.08 47.9844 23.2919 48.0678 23.489C48.1511 23.6861 48.2732 23.8644 48.4268 24.0135C48.5803 24.1626 48.7623 24.2793 48.9618 24.3567C49.1613 24.4342 49.3743 24.4708 49.5882 24.4644H49.8862C50.0655 24.4637 50.2379 24.534 50.3656 24.6601C50.4932 24.7861 50.5657 24.9576 50.5672 25.137V27.3519C50.5661 27.5157 50.5047 27.6733 50.3948 27.7947C50.2849 27.9161 50.1341 27.9929 49.9713 28.0103C48.9974 28.14 48.091 28.5794 47.3858 29.2636C46.6807 29.9478 46.2142 30.8406 46.0551 31.8101C46.0227 31.9965 45.9249 32.1652 45.7792 32.2858C45.6336 32.4065 45.4496 32.4713 45.2605 32.4685H16.1587C15.9696 32.4713 15.7857 32.4065 15.64 32.2858C15.4944 32.1652 15.3965 31.9965 15.3641 31.8101C15.2043 30.8385 14.7357 29.9442 14.0278 29.2598C13.3198 28.5753 12.4102 28.1372 11.4338 28.0103C11.2716 27.993 11.1215 27.9168 11.0117 27.7963C10.9019 27.6758 10.84 27.5192 10.8378 27.3562V25.1413C10.8384 25.0524 10.8564 24.9645 10.891 24.8826C10.9255 24.8007 10.9758 24.7264 11.0391 24.6639C11.1023 24.6015 11.1772 24.5521 11.2596 24.5186C11.3419 24.4851 11.43 24.4681 11.5189 24.4687H11.8311C12.045 24.4751 12.258 24.4384 12.4575 24.361C12.657 24.2835 12.8389 24.1668 12.9925 24.0178C13.146 23.8687 13.2681 23.6903 13.3515 23.4932C13.4348 23.2961 13.4778 23.0843 13.4778 22.8703C13.4778 22.6563 13.4348 22.4445 13.3515 22.2474C13.2681 22.0503 13.146 21.8719 12.9925 21.7228C12.8389 21.5738 12.657 21.4571 12.4575 21.3796C12.258 21.3022 12.045 21.2655 11.8311 21.2719H11.5189C11.43 21.2725 11.3419 21.2555 11.2596 21.222C11.1772 21.1885 11.1023 21.1391 11.0391 21.0767C10.9758 21.0142 10.9255 20.9399 10.891 20.858C10.8564 20.7761 10.8384 20.6882 10.8378 20.5993V18.82C10.8389 18.6404 10.9113 18.4685 11.039 18.3422C11.1667 18.2158 11.3393 18.1453 11.5189 18.146H11.8311C12.0447 18.148 12.2566 18.1071 12.4543 18.026C12.652 17.9448 12.8314 17.825 12.9821 17.6735C13.1328 17.522 13.2517 17.3419 13.3318 17.1438C13.4119 16.9457 13.4516 16.7336 13.4486 16.52C13.4294 16.0917 13.2436 15.6878 12.9308 15.3946C12.618 15.1014 12.203 14.9421 11.7743 14.9507H11.5189C11.43 14.9512 11.3419 14.9343 11.2596 14.9008C11.1772 14.8673 11.1023 14.8179 11.0391 14.7554C10.9758 14.693 10.9255 14.6187 10.891 14.5368C10.8564 14.4549 10.8384 14.367 10.8378 14.2781V12.0774C10.8393 11.9135 10.9007 11.7559 11.0105 11.6343C11.1203 11.5127 11.2709 11.4356 11.4338 11.4176C12.4104 11.2859 13.3192 10.8445 14.0266 10.1583C14.734 9.4721 15.2028 8.57721 15.3641 7.60498C15.3932 7.4159 15.4896 7.2437 15.6357 7.1201C15.7817 6.99651 15.9674 6.92986 16.1587 6.93242H45.2321Z" fill="#0E797F"/>
</g>
<defs>
<filter id="filter0_dd_1_19" x="0.264098" y="0.226654" width="59.9238" height="41.8528" filterUnits="userSpaceOnUse" color-interpolation-filters="sRGB">
<feFlood flood-opacity="0" result="BackgroundImageFix"/>
<feColorMatrix in="SourceAlpha" type="matrix" values="0 0 0 0 0 0 0 0 0 0 0 0 0 0 0 0 0 0 127 0" result="hardAlpha"/>
<feOffset dx="-3.86795"/>
<feGaussianBlur stdDeviation="1.93398"/>
<feComposite in2="hardAlpha" operator="out"/>
<feColorMatrix type="matrix" values="0 0 0 0 1 0 0 0 0 1 0 0 0 0 1 0 0 0 1 0"/>
<feBlend mode="normal" in2="BackgroundImageFix" result="effect1_dropShadow_1_19"/>
<feColorMatrix in="SourceAlpha" type="matrix" values="0 0 0 0 0 0 0 0 0 0 0 0 0 0 0 0 0 0 127 0" result="hardAlpha"/>
<feOffset dx="2.90096" dy="2.90096"/>
<feGaussianBlur stdDeviation="1.93398"/>
<feComposite in2="hardAlpha" operator="out"/>
<feColorMatrix type="matrix" values="0 0 0 0 0 0 0 0 0 0 0 0 0 0 0 0 0 0 0.25 0"/>
<feBlend mode="normal" in2="effect1_dropShadow_1_19" result="effect2_dropShadow_1_19"/>
<feBlend mode="normal" in="SourceGraphic" in2="effect2_dropShadow_1_19" result="shape"/>
</filter>
</defs>
</svg>
