<svg width="42" height="42" viewBox="0 0 42 42" fill="none" xmlns="http://www.w3.org/2000/svg">
<path d="M21.0099 0.802002C32.2253 0.802002 41.3166 9.89333 41.3166 21.1087C41.3166 32.3242 32.2253 41.4155 21.0099 41.4155C9.79445 41.4155 0.703125 32.3242 0.703125 21.1087C0.703125 9.89333 9.79445 0.802002 21.0099 0.802002ZM22.3643 3.56169V5.66344C22.3643 6.02266 22.2216 6.36717 21.9676 6.62118C21.7136 6.87519 21.3691 7.0179 21.0099 7.0179C20.6506 7.0179 20.3061 6.87519 20.0521 6.62118C19.7981 6.36717 19.6554 6.02266 19.6554 5.66344V3.56169C17.0085 3.76029 14.4417 4.55964 12.15 5.89899L13.21 7.08491C13.4393 7.35427 13.5541 7.70262 13.5298 8.05549C13.5056 8.40836 13.3443 8.73776 13.0804 8.97327C12.8165 9.20878 12.471 9.33172 12.1176 9.31582C11.7643 9.29991 11.4312 9.14642 11.1895 8.88815L9.9102 7.45246C8.5119 8.58884 7.29568 9.93244 6.30372 11.4366L8.01558 12.4642C8.30905 12.6556 8.51689 12.9534 8.59543 13.2949C8.67398 13.6364 8.61711 13.9951 8.43679 14.2955C8.25646 14.596 7.96671 14.8149 7.6284 14.9062C7.29009 14.9975 6.92956 14.9541 6.62254 14.7852L4.99191 13.8085C4.25939 15.4123 3.77397 17.1177 3.55216 18.8669H5.39398C5.57185 18.8669 5.74798 18.9019 5.91231 18.97C6.07664 19.038 6.22596 19.1378 6.35173 19.2636C6.4775 19.3894 6.57727 19.5387 6.64534 19.703C6.71341 19.8673 6.74844 20.0435 6.74844 20.2213C6.74844 20.3992 6.71341 20.5753 6.64534 20.7397C6.57727 20.904 6.4775 21.0533 6.35173 21.1791C6.22596 21.3049 6.07664 21.4046 5.91231 21.4727C5.74798 21.5408 5.57185 21.5758 5.39398 21.5758L3.41814 21.5738V21.6367C3.48169 23.9228 3.99364 26.1741 4.9249 28.2628L6.62254 27.1277C6.92122 26.9359 7.28323 26.869 7.6307 26.9415C7.97818 27.0139 8.28333 27.2198 8.48053 27.5149C8.67772 27.81 8.75118 28.1708 8.68512 28.5195C8.61906 28.8683 8.41874 29.1771 8.12727 29.3797L6.22047 30.6529C7.81492 33.1257 10.0043 35.1589 12.5881 36.5663C15.172 37.9736 18.0676 38.7102 21.0099 38.7086C24.0589 38.7107 27.0561 37.9199 29.7073 36.414C32.3585 34.9081 34.5726 32.7387 36.1323 30.1188L33.8336 28.5816C33.5483 28.3768 33.3536 28.0692 33.2908 27.7236C33.228 27.3781 33.3018 27.0216 33.4967 26.7295C33.6917 26.4373 33.9925 26.2323 34.3357 26.1577C34.6789 26.0831 35.0376 26.1448 35.3363 26.3296L37.3446 27.6719C38.1262 25.731 38.5527 23.6655 38.6036 21.5738H36.4024C36.0525 21.5602 35.7215 21.4117 35.4787 21.1593C35.236 20.907 35.1004 20.5705 35.1004 20.2203C35.1004 19.8702 35.236 19.5336 35.4787 19.2813C35.7215 19.029 36.0525 18.8804 36.4024 18.8669H38.4676C38.2755 17.3552 37.8863 15.8751 37.3101 14.4644L35.3809 15.4635C35.2223 15.5541 35.0471 15.6117 34.8656 15.6329C34.6842 15.654 34.5003 15.6382 34.3251 15.5865C34.1499 15.5347 33.987 15.448 33.8462 15.3317C33.7054 15.2153 33.5895 15.0717 33.5057 14.9094C33.4218 14.7472 33.3716 14.5696 33.3581 14.3874C33.3446 14.2052 33.3682 14.0222 33.4272 13.8494C33.4863 13.6765 33.5798 13.5174 33.702 13.3816C33.8241 13.2458 33.9725 13.1361 34.1382 13.0592L36.0978 12.0438C35.101 10.3887 33.8394 8.90832 32.3634 7.66162L31.1409 9.26382C31.0329 9.40516 30.8981 9.52384 30.7442 9.61308C30.5904 9.70233 30.4204 9.7604 30.2441 9.78397C30.0678 9.80754 29.8886 9.79615 29.7167 9.75046C29.5448 9.70476 29.3836 9.62566 29.2422 9.51765C29.1009 9.40965 28.9822 9.27487 28.893 9.121C28.8037 8.96713 28.7456 8.79719 28.7221 8.62089C28.6985 8.44458 28.7099 8.26535 28.7556 8.09344C28.8013 7.92154 28.8804 7.76031 28.9884 7.61898L30.1662 6.07566C27.8018 4.63058 25.1276 3.76885 22.3643 3.56169ZM28.96 14.6492C29.1841 14.9296 29.2877 15.2875 29.2481 15.6442C29.2085 16.001 29.0289 16.3275 28.7488 16.5519L24.6062 19.8639L24.6204 20.1076C24.6204 21.5128 23.5462 22.6703 22.1734 22.8003L21.9115 22.8125C21.5069 22.8122 21.1076 22.7213 20.7428 22.5463C20.378 22.3714 20.0571 22.1169 19.8036 21.8016C19.5501 21.4862 19.3705 21.1181 19.2781 20.7243C19.1856 20.3304 19.1826 19.9208 19.2693 19.5257C19.3559 19.1305 19.5301 18.7598 19.7789 18.4408C20.0277 18.1218 20.3449 17.8626 20.7071 17.6823C21.0693 17.502 21.4673 17.4052 21.8718 17.399C22.2763 17.3928 22.6771 17.4774 23.0446 17.6464L27.0572 14.438C27.3376 14.2139 27.6955 14.1102 28.0523 14.1498C28.4091 14.1894 28.7355 14.369 28.96 14.6492Z" fill="white"/>
</svg>
