<svg width="48" height="43" viewBox="0 0 48 43" fill="none" xmlns="http://www.w3.org/2000/svg">
<g filter="url(#filter0_dd_1_25)">
<path d="M9.70659 30.7132C7.0791 28.604 7.0791 27.0082 7.0791 20.216C7.0791 13.4238 7.0791 10.0268 9.70659 7.91761C12.3377 5.80664 16.5661 5.80664 25.0264 5.80664C33.4868 5.80664 37.717 5.80664 40.3445 7.91761C42.9738 10.0268 42.9738 13.4238 42.9738 20.216C42.9738 27.0082 42.9738 28.604 40.3445 30.7132C37.7188 32.8241 33.4868 32.8241 25.0264 32.8241C20.5217 32.8241 18.2065 35.9546 14.258 38.2276V32.4423C12.2946 32.1487 10.8498 31.6318 9.70659 30.7132Z" stroke="#0E797F" stroke-width="1.73684" stroke-linecap="round" stroke-linejoin="round"/>
<circle cx="16.9214" cy="19.1226" r="1.73684" fill="#0E797F"/>
<circle cx="25.0264" cy="19.1226" r="1.73684" fill="#0E797F"/>
<circle cx="33.1314" cy="19.1226" r="1.73684" fill="#0E797F"/>
</g>
<defs>
<filter id="filter0_dd_1_25" x="0.573715" y="0.935334" width="47.0264" height="41.9186" filterUnits="userSpaceOnUse" color-interpolation-filters="sRGB">
<feFlood flood-opacity="0" result="BackgroundImageFix"/>
<feColorMatrix in="SourceAlpha" type="matrix" values="0 0 0 0 0 0 0 0 0 0 0 0 0 0 0 0 0 0 127 0" result="hardAlpha"/>
<feOffset dx="-3.26767" dy="-1.63384"/>
<feGaussianBlur stdDeviation="1.18453"/>
<feComposite in2="hardAlpha" operator="out"/>
<feColorMatrix type="matrix" values="0 0 0 0 1 0 0 0 0 1 0 0 0 0 1 0 0 0 1 0"/>
<feBlend mode="normal" in2="BackgroundImageFix" result="effect1_dropShadow_1_25"/>
<feColorMatrix in="SourceAlpha" type="matrix" values="0 0 0 0 0 0 0 0 0 0 0 0 0 0 0 0 0 0 127 0" result="hardAlpha"/>
<feOffset dx="1.63384" dy="1.63384"/>
<feGaussianBlur stdDeviation="1.06199"/>
<feComposite in2="hardAlpha" operator="out"/>
<feColorMatrix type="matrix" values="0 0 0 0 0 0 0 0 0 0 0 0 0 0 0 0 0 0 0.25 0"/>
<feBlend mode="normal" in2="effect1_dropShadow_1_25" result="effect2_dropShadow_1_25"/>
<feBlend mode="normal" in="SourceGraphic" in2="effect2_dropShadow_1_25" result="shape"/>
</filter>
</defs>
</svg>
